<svg xmlns="http://www.w3.org/2000/svg" version="1.1" xmlns:xlink="http://www.w3.org/1999/xlink" xmlns:svgjs="http://svgjs.dev/svgjs" width="100%" height="100%" viewBox="0 0 1000 600"><rect width="1000" height="600" x="0" y="0" fill="none"/><g><circle r="166.66666666666666" cx="384.7882944742838" cy="407.01043426749425" fill="White" transform="matrix(0.5730750798401781,0,0,0.573075079840178,0,66.75247145493186)"/><path d="M327.5771261024484 456.6146318153038L327.5771261024484 456.6146318153038Q319.1118500410384 456.6146318153038 311.82230676593537 455.08617919310484Q304.53276349083234 453.5577265709058 299.6417150997954 450.0070135562588L299.6417150997954 450.0070135562588Q296.25560467523144 447.46743073783585 294.4684908400449 443.5875125430229Q292.68137700485835 439.68407969248386 292.68137700485835 435.61604425186187L292.68137700485835 435.61604425186187Q292.68137700485835 430.53687861501584 295.5736796591734 426.13963799422794Q298.44246765776234 421.7423973734399 304.72088073664145 420.21394475124094L304.72088073664145 420.21394475124094Q305.5674083427824 420.04934216115794 306.31987732601885 419.95528353825335Q307.0723463092553 419.884739571075 307.75427132531337 419.884739571075L307.75427132531337 419.884739571075Q311.14038174987735 419.884739571075 313.7740231912049 421.38967753754787Q316.38414997680627 422.9181301597469 317.4187948287564 424.96390520792096L317.4187948287564 424.96390520792096Q316.7368698126984 425.45771297816987 315.5376223706653 426.7275043873814Q314.3618895843584 427.9972957965928 314.0326844041924 428.8438234027339L314.0326844041924 428.8438234027339Q311.4931015857694 433.07646143343885 311.4931015857694 437.30909946414386L311.4931015857694 437.30909946414386Q311.4931015857694 443.07019011704784 315.9608861737358 446.71496175459936Q320.4521854174283 450.35973339215093 327.74172869253135 450.35973339215093L327.74172869253135 450.35973339215093Q334.34934695157636 450.35973339215093 340.18098157165883 447.0441669347653Q346.01261619174124 443.7521151331059 349.65738782929276 438.1556270702849Q353.3021594668443 432.58265366318994 353.3021594668443 425.2931103880869L353.3021594668443 425.2931103880869Q353.3021594668443 419.884739571075 350.76257664842126 413.7709290822789L350.76257664842126 413.7709290822789Q348.55219901016426 408.5271608553499 344.74282478252974 404.4591254147279Q340.9334505548953 400.414604629832 337.54734013033124 396.8403769594589L337.54734013033124 396.8403769594589Q332.98549691946033 391.949328568422 328.8469175116599 387.2934267346465Q324.68482344813333 382.637524900871 322.0746966625319 377.1350954609546Q319.44105522120435 371.63266602103806 319.44105522120435 364.672327926101L319.44105522120435 364.672327926101Q319.44105522120435 358.0882243227821 322.23929925261484 351.809811243903Q325.0375432840254 345.5549128207501 330.28131151095437 341.1576721999621L330.28131151095437 341.1576721999621Q336.20700475394136 336.07850656311615 343.82575320921035 334.03273151494204Q351.44450166447933 332.0104711224941 359.74517513580633 332.0104711224941L359.74517513580633 332.0104711224941Q370.0681089995813 332.0104711224941 376.0643462097467 334.62059790809553Q382.0840980756382 337.2542393494231 384.7177395169658 341.32227479004507Q387.3278663025672 345.3903102306671 387.3278663025672 349.95215344153803L387.3278663025672 349.95215344153803Q387.3278663025672 354.34939406232604 385.3761498772977 358.41742950294804Q383.4479481077543 362.48546494357004 380.0618376831903 365.2837089749806Q376.6757272586263 368.05843835066497 372.60769181800424 368.740363366723L372.60769181800424 368.740363366723Q371.9257668019462 368.90496595680594 371.2438417858882 368.90496595680594Q370.5619167698302 368.90496595680594 369.7153891636892 368.90496595680594L369.7153891636892 368.90496595680594Q366.0000735589593 368.90496595680594 363.20182952754874 367.21191074452395Q360.40358549613825 365.51885553224196 360.40358549613825 361.47433474734606L360.40358549613825 361.47433474734606Q360.40358549613825 360.95701232137105 360.4976441190428 360.27508730531304Q360.5917027419473 359.59316228925496 360.7563053320303 358.9347519289231L360.7563053320303 358.9347519289231Q363.78969592070223 358.9347519289231 367.01120375518326 356.72437429066605Q370.23271158966423 354.513996652409 371.2438417858882 351.809811243903L371.2438417858882 351.809811243903Q372.09036939202923 349.62294826137213 372.09036939202923 347.74177580328103L372.09036939202923 347.74177580328103Q372.09036939202923 343.17993259241007 367.9517899842288 340.5462911510825Q363.78969592070223 337.9361643654811 358.2167225136073 337.9361643654811L358.2167225136073 337.9361643654811Q351.6091042545623 337.9361643654811 346.4358799948118 340.7344083968916Q341.28617039078733 343.509137772576 338.39386773647226 348.0004370162685Q335.5250797378833 352.49173625996104 335.5250797378833 357.73550448689L335.5250797378833 357.73550448689Q335.5250797378833 362.979272713819 338.7465875723643 367.89383576058196L338.7465875723643 367.89383576058196Q341.4507729808703 371.797268611121 345.51880842149234 375.9358480189215Q349.5868438621144 380.09794208244807 353.81948189281934 383.90731631008254Q358.05211992352434 387.71669053771706 361.08551051219627 390.9146837164719L361.08551051219627 390.9146837164719Q368.0223339514072 397.6869045655999 371.07923919580526 404.7177866277154Q374.13614444020334 411.74866868983094 374.13614444020334 418.5208895389589L374.13614444020334 418.5208895389589Q374.13614444020334 426.3042405843109 370.49137280265177 433.17052005634343Q366.84660116510025 440.0132848726498 360.40358549613825 445.28056775530496Q353.9840844829023 450.5243359822339 345.51880842149234 453.5577265709058Q337.0535323600824 456.6146318153038 327.5771261024484 456.6146318153038ZM380.5556454534392 482.0104599995338L380.5556454534392 482.0104599995338Q372.77229440808725 482.0104599995338 367.9517899842288 477.51916075584126Q363.1312855603703 473.0278615121487 363.1312855603703 465.59723030268884L363.1312855603703 465.59723030268884Q363.1312855603703 464.06877768048986 363.7191519535238 461.3645922719839Q364.3070183466773 458.63689220775177 366.0000735589593 456.3559706023163Q367.6931287712413 454.07504899688087 370.7500340156393 453.7458438167149L370.7500340156393 453.7458438167149L370.7500340156393 454.7569740129389Q370.7500340156393 460.00074223986786 373.2896168340623 462.0230026323158Q375.8291996524853 464.06877768048986 379.0271928312402 464.06877768048986L379.0271928312402 464.06877768048986Q384.10635846808617 464.06877768048986 388.4330551216957 461.0118724360918Q392.7597517753053 457.9784818474199 395.79314236397715 454.2396515869638L395.79314236397715 454.2396515869638Q400.02578039468216 448.99588336003484 404.3524770482917 441.8944573307409Q408.6556590461751 434.76951664572084 412.65315051961875 427.08022422327343Q416.6271273373362 419.3674171450999 419.9191791389957 412.00732990281847Q423.23474559638123 404.647242660537 425.77432841480424 398.79209338472845Q428.3139112332272 392.960458764646 429.4896440195341 389.738950930165L429.4896440195341 389.738950930165Q431.5119044119821 384.659785293319 434.9920734594507 377.37024201821595Q438.4722425069192 370.104213398839 442.7754245048026 362.7441261565576Q447.10212115841216 355.36052425854996 451.66396436928306 349.8580948186335Q456.24932223588013 344.35566537871705 460.48196026658513 342.8507274122441L460.48196026658513 342.8507274122441Q457.754260202353 342.00419980610314 453.45107820446964 341.7455385931156Q449.1243815508601 341.4868773801281 444.8917435201551 341.4868773801281L444.8917435201551 341.4868773801281Q441.3410305055081 341.4868773801281 438.3781838840146 341.58093600303266Q435.4153372625211 341.651479970211 433.72228205023913 342.00419980610314L433.72228205023913 342.00419980610314Q426.10353359497014 343.17993259241007 418.1555799595352 345.88411800091603Q410.18411166837416 348.588303409422 404.3524770482917 352.2330750469735Q398.4973277724832 355.877846684525 396.99238980601024 360.27508730531304L396.99238980601024 360.27508730531304Q396.8042725602012 360.79240973128805 396.3104647899522 360.79240973128805L396.3104647899522 360.79240973128805Q394.7820121677532 360.79240973128805 394.7820121677532 358.41742950294804L394.7820121677532 358.41742950294804Q394.7820121677532 357.900107076973 395.11121734791914 356.888976880749L395.11121734791914 356.888976880749Q396.6396699701182 352.49173625996104 398.92059157555366 349.10562583539706Q401.22502783671524 345.7195154108331 403.57649340932915 343.344535182493L403.57649340932915 343.344535182493Q409.1729814721502 337.58344452958903 416.10980491136115 336.3136531203775Q423.04662835057206 335.043861711166 430.85349405165016 335.043861711166L430.85349405165016 335.043861711166L438.8014476870851 335.043861711166L476.89518996343 335.2319789569751Q471.6514217365011 339.11189715178807 468.00665009894954 342.1688023961861Q464.3618784613981 345.202192984858 461.56363442998753 348.5177594422436Q458.78890505430314 351.809811243903 456.24932223588013 356.4657130776785Q453.7097394174572 361.121614911454 450.81743676314204 368.1524969735695Q447.9486487645531 375.18337903568505 444.20981850409703 385.67091548954295L444.20981850409703 385.67091548954295Q442.1875581116491 391.432006142447 439.22471149015564 400.6497511870934Q436.2618648686621 409.89101088746594 432.2878880509447 420.8018111443944Q428.3139112332272 431.7361260570489 423.14068697347665 442.4823237238944Q417.96746271372615 453.22852139073984 411.6185056676686 462.21111987812486Q405.26954862161114 471.1702037097838 397.4861975762592 476.60208918252187Q389.7028465309072 482.0104599995338 380.5556454534392 482.0104599995338Z " fill="purple" transform="matrix(0.5730750798401781,0,0,0.573075079840178,0,66.75247145493186)"/><path d="M650.3699686396335 470.2087077205082L650.3699686396335 470.2087077205082Q643.3981081066311 470.2087077205082 639.0931942233015 466.19778795604Q634.7882803399716 462.18686819157176 634.7882803399716 455.5510009372683L634.7882803399716 455.5510009372683Q634.7882803399716 454.186028242554 635.3132698379386 451.77107655190565Q635.8382593359057 449.33512528133855 637.3502290900508 447.2981660292264Q638.8621988441959 445.2612067771143 641.5921442336245 444.9672126582527L641.5921442336245 444.9672126582527L641.5921442336245 445.8701945947561Q641.5921442336245 450.5531009166221 643.8600988648421 452.3590647896287Q646.1280534960597 454.186028242554 649.0049959449191 454.186028242554L649.0049959449191 454.186028242554Q653.5409052073544 454.186028242554 657.3838283324732 451.4560828531254Q661.2477510375106 448.74713704361545 663.9776964269392 445.40820383654506L663.9776964269392 445.40820383654506Q667.757620812302 440.725297514679 671.6005439374208 434.38342437923717Q675.4644666424581 428.0205516638766 679.0133956487153 421.15368903046766Q682.5623246549726 414.26582681714007 685.5232654235067 407.6929583025927Q688.4632066121221 401.1200897880453 690.7311612433398 395.8911943882935Q692.9991158745574 390.68329856846043 694.0490948704914 387.80635611960105L694.0490948704914 387.80635611960105Q695.8760583234168 383.2704468571658 698.962996571463 376.7605770823744Q702.0709343994279 370.2717068875018 705.9348571044654 363.6988383729544Q709.7777802295841 357.10497027848834 713.872698313727 352.19106857751683Q717.9466168179513 347.27716687654527 721.726541203314 345.93319376174964L721.726541203314 345.93319376174964Q719.3115895126657 345.1772088846771 715.4476668076281 344.9462135055716Q711.6047436825095 344.7152181264661 707.8248192971466 344.7152181264661L707.8248192971466 344.7152181264661Q704.632883149507 344.7152181264661 701.9869360797531 344.7992164461408Q699.3409890099992 344.86221518589684 697.8290192558542 345.1772088846771L697.8290192558542 345.1772088846771Q691.0251553622013 346.2271878806112 683.9272973496869 348.6421395712596Q676.8294393371725 351.057091261908 671.6005439374208 354.3120261493036Q666.3926481175877 357.56696103669935 665.0276754228732 361.49388248149285L665.0276754228732 361.49388248149285Q664.8806783634425 361.9558732397038 664.4186876052315 361.9558732397038L664.4186876052315 361.9558732397038Q663.0537149105172 361.9558732397038 663.0537149105172 359.83491566791696L663.0537149105172 359.83491566791696Q663.0537149105172 359.37292490970594 663.3687086092975 358.46994297320265L663.3687086092975 358.46994297320265Q664.7336813040117 354.54302152840916 666.7706405561239 351.51908202011896Q668.8075998082361 348.4951425118288 670.9285573800229 346.37418494004197L670.9285573800229 346.37418494004197Q675.9054578207505 341.2292878599649 682.1213334766803 340.09531054435615Q688.3162095526914 338.9613332287473 695.2670705057751 338.9613332287473L695.2670705057751 338.9613332287473L702.3649285182894 338.9613332287473L736.3842479865539 339.12932986809676Q731.7013416646879 342.59426055467924 728.4464067772922 345.3242059441079Q725.2124714698152 348.03315175361786 722.7135214594921 350.99409252215196Q720.214571449169 353.9340337107674 717.9466168179513 358.09195053466635Q715.6786621867336 362.2498673585653 713.1167134366545 368.5287417542512Q710.5337651066567 374.807616149937 707.2158314795049 384.1734287936691L707.2158314795049 384.1734287936691Q705.3888680265796 389.3183258737461 702.7429209568257 397.55016120186934Q700.0969738870718 405.8029961099113 696.5480448808146 415.5468011921796Q692.9991158745574 425.31160585436663 688.3792082924474 434.90841387720417Q683.7803002902562 444.50522190004176 678.110413712212 452.5270614289782Q672.440527134168 460.5279013779959 665.4896661810843 465.3788043392114Q658.517805648082 470.2087077205082 650.3699686396335 470.2087077205082ZM757.7198211839345 445.40820383654506L757.7198211839345 445.40820383654506Q753.0159152821498 445.40820383654506 751.2939497288179 441.7752765106131Q749.5509845955673 438.16334876459985 749.5509845955673 432.87145462509204L749.5509845955673 432.87145462509204Q749.5509845955673 428.0205516638766 750.4539665320707 423.33764534201055L750.4539665320707 423.33764534201055Q750.9159572902817 421.2166877702237 751.4409467882487 419.03273145868076Q751.9659362862158 416.8277755672192 752.7219211632882 414.4128238765708L752.7219211632882 414.4128238765708Q750.1599724132091 419.09573019843685 747.3460287041057 423.4846424014413Q744.5530845749211 427.8735546044458 741.6761421260617 431.1914882315975L741.6761421260617 431.1914882315975Q736.8462387447648 437.0923701887471 731.4703462855823 441.0192916335406Q726.1154534063185 444.9672126582527 720.8235592668107 444.9672126582527L720.8235592668107 444.9672126582527Q716.581644123237 444.9672126582527 713.6417029346215 441.85927483028786Q710.6807621660874 438.75133700232294 710.6807621660874 431.0444911721668L710.6807621660874 431.0444911721668Q710.6807621660874 423.1906482825798 713.4107075555161 414.8748146347818Q716.1406529449447 406.55898098698384 721.0545546459161 399.37712465479467Q725.9684563468877 392.1952683226055 732.6883219208659 387.80635611960105Q739.408187494844 383.41744391659654 747.4300270237804 383.41744391659654L747.4300270237804 383.41744391659654Q749.9919757738596 383.41744391659654 753.0159152821498 384.1734287936691Q756.03985479044 384.92941367074167 758.6228031204379 386.9663729228538Q761.1847518705171 389.0243317548846 762.0877338070203 392.63625950089784L762.0877338070203 392.63625950089784Q762.2557304463697 392.3422653820363 762.4657262455567 392.1952683226055Q762.6967216246621 392.04827126317474 762.8437186840929 391.8802746238253L762.8437186840929 391.8802746238253Q764.9646762558798 388.5623409966736 767.6946216453084 386.294386365456Q770.4035674548184 384.0264317342383 773.7425006618887 384.0264317342383L773.7425006618887 384.0264317342383Q775.4014674754646 384.0264317342383 778.4254069837548 384.1734287936691Q781.4493464920449 384.3204258530999 782.8143191867592 384.1734287936691L782.8143191867592 384.1734287936691Q782.0583343096866 384.78241661131085 780.777359934647 386.5883804843175Q779.4753859796888 388.4153439372428 778.4254069837548 390.3053061299242Q777.3754279878207 392.1952683226055 776.7664401701788 393.2452473185396L776.7664401701788 393.2452473185396Q772.6715220860359 401.1200897880453 769.3535884588842 408.8269356182015Q766.0356548317325 416.5337814483577 764.2086913788072 423.6316394608721L764.2086913788072 423.6316394608721Q763.7677002005148 425.1436092150172 763.5997035611654 426.44558316997546Q763.4527065017346 427.72655754501505 763.4527065017346 428.92353360037987L763.4527065017346 428.92353360037987Q763.4527065017346 432.87145462509204 766.0356548317325 432.87145462509204L766.0356548317325 432.87145462509204Q768.4506065223809 432.87145462509204 772.0835338483128 429.84751511680184L772.0835338483128 429.84751511680184Q777.3754279878207 425.60559997322815 781.3653481723702 419.2637268377863Q785.3762679368384 412.90085412242576 788.4002074451286 406.9999721652761L788.4002074451286 406.9999721652761Q789.0091952627703 405.94999316934206 789.4711860209813 405.94999316934206L789.4711860209813 405.94999316934206Q790.3741679574846 405.94999316934206 790.3741679574846 408.51194191942125L790.3741679574846 408.51194191942125Q790.3741679574846 409.7299175547048 789.9961755189483 411.24188730884987Q789.6181830804121 412.75385706299494 788.8621982033395 414.11882975770925L788.8621982033395 414.11882975770925Q786.7412406315527 417.7517570836412 783.3393086847262 423.04365122314897Q779.9373767378999 428.3355453626568 775.695461594326 433.3964441230591Q771.474546030671 438.4573428834614 766.8546384485611 441.9432731499626Q762.2557304463697 445.40820383654506 757.7198211839345 445.40820383654506ZM727.6274231604636 432.26246680745027L727.6274231604636 432.26246680745027Q728.0684143387559 432.409463866881 728.9923958551778 432.409463866881L728.9923958551778 432.409463866881Q731.8483387241187 432.409463866881 735.187271931189 429.99451217623266Q738.5052055583408 427.57956048558424 741.8441387654111 423.71563778054684Q745.1620723925629 419.8517150755094 747.724021142642 415.9247936307159L747.724021142642 415.9247936307159Q754.3808879768642 405.3410053517003 757.5518245445851 400.0491112121925Q760.7437606922247 394.7572170726847 761.1847518705171 394.00123219561215L761.1847518705171 394.00123219561215Q760.4287669934445 391.43928344553296 758.5388048007632 390.22130781024947Q756.6488426080817 389.0243317548846 754.0868938580026 389.0243317548846L754.0868938580026 389.0243317548846Q750.7479606509322 389.0243317548846 747.0520345852442 390.8302956278912Q743.3561085195562 392.63625950089784 740.7731601895584 395.2192078308957L740.7731601895584 395.2192078308957Q736.8462387447648 399.1461292756892 733.2973097385077 405.3410053517003Q729.7483807322504 411.5358814277114 727.5434248407889 417.5837604442917Q725.359468529246 423.6316394608721 725.359468529246 427.72655754501505L725.359468529246 427.72655754501505Q725.359468529246 431.50648193037773 727.6274231604636 432.26246680745027ZM791.1301528345572 445.40820383654506L791.1301528345572 445.40820383654506Q786.8882376909835 445.40820383654506 784.7672801191966 442.3212655884989Q782.6673221273285 439.2133277605339 782.6673221273285 433.92143362102615L782.6673221273285 433.92143362102615Q782.6673221273285 433.1654487439536 782.6673221273285 432.409463866881Q782.6673221273285 431.65347898980855 782.8143191867592 430.89749411273596L782.8143191867592 430.89749411273596Q783.5703040638318 425.1436092150172 785.4602662565131 417.898754143072Q787.3502284491944 410.6328994912081 789.9121771992736 402.63205954219035L789.9121771992736 402.63205954219035Q791.4241469534187 398.0961502797551 793.7760999043111 391.2082880664275Q796.1070532752848 384.3204258530999 799.2989894229244 376.3825846438382Q802.4699259906454 368.4447434345765 806.312849115764 360.5909005449895Q810.1767718208016 352.7370576554025 814.8596781426676 346.31118620028593Q819.5425844645335 339.8853147451693 824.7714798642853 335.9373937204571Q829.9793756841184 332.0104722756637 835.880257641268 332.0104722756637L835.880257641268 332.0104722756637Q840.7101610225648 332.0104722756637 842.5371244754901 334.362425226556Q844.3430883484967 336.69337859752966 844.3430883484967 339.8853147451693L844.3430883484967 339.8853147451693Q844.3430883484967 343.203248372321 843.1461122931319 346.60518031914745Q841.9281366578483 350.0071122659739 840.7101610225648 352.27506689719155L840.7101610225648 352.27506689719155Q838.0012152130548 357.7139580961301 833.6123030100504 364.517821989783Q829.2233908070459 371.32168588343586 824.3934874257491 377.22256784058544L824.3934874257491 377.22256784058544Q821.5165449768897 381.0024922259482 817.274629833316 385.68539854781415Q813.053714269661 390.36830486968023 809.3367886240542 394.3162258943924Q805.6408625583663 398.2431473391859 803.9818957447903 399.75511709333097L803.9818957447903 399.75511709333097L801.566944054142 406.7059780464146Q800.4959654782892 409.58292049527404 799.5089852221112 413.5098419400675Q798.5430045458519 417.43676338486097 797.8500184085353 421.3006860898984Q797.1780318511376 425.1436092150172 796.7160410929265 428.0205516638766L796.7160410929265 428.0205516638766Q796.5690440334957 428.62953948151835 796.5690440334957 429.2385272991601Q796.5690440334957 429.84751511680184 796.5690440334957 430.28850629509424L796.5690440334957 430.28850629509424Q796.5690440334957 434.82441555752945 800.054974299997 434.82441555752945L800.054974299997 434.82441555752945Q802.1549322918651 434.82441555752945 805.3468684395048 432.87145462509204L805.3468684395048 432.87145462509204Q808.3708079477949 431.0444911721668 811.1637520769796 428.1045499835513Q813.9566962061642 425.1436092150172 815.1746718414478 423.6316394608721L815.1746718414478 423.6316394608721Q818.198611349738 419.70471801607863 820.9075571592479 415.2528070733181Q823.6375025486765 410.77989655063885 825.5904634811139 406.9999721652761L825.5904634811139 406.9999721652761Q826.3464483581864 405.8029961099113 826.6614420569667 405.8029961099113L826.6614420569667 405.8029961099113Q827.56442399347 405.8029961099113 827.56442399347 408.36494485999043L827.56442399347 408.36494485999043Q827.56442399347 409.58292049527404 827.1864315549337 411.15788898917515Q826.8084391163975 412.75385706299494 826.0524542393249 414.11882975770925L826.0524542393249 414.11882975770925Q823.9314966675381 417.7517570836412 821.0545542186786 422.11966970672705Q818.198611349738 426.5085819097315 815.1746718414478 430.60349999387444L815.1746718414478 430.60349999387444Q812.9067172102302 433.6274395021646 808.8117991260872 437.0923701887471Q804.7378806218629 440.57830045524827 800.054974299997 442.99325214589663Q795.3510683982122 445.40820383654506 791.1301528345572 445.40820383654506ZM807.0058352530806 391.12428974675277L807.0058352530806 391.12428974675277Q814.5656840238059 382.2204678612317 822.3565281736369 372.01467202075236Q830.1263727435492 361.80887618027305 835.2712698236262 351.22508790125744L835.2712698236262 351.22508790125744Q835.5862635224064 350.4691030241849 836.6362425183405 348.2011483929673Q837.6862215142746 345.93319376174964 838.6102030306967 343.1192500526463Q839.5131849671999 340.32630592346163 839.5131849671999 338.3733449910242L839.5131849671999 338.3733449910242Q839.5131849671999 335.79039666102636 837.5392244548439 335.79039666102636L837.5392244548439 335.79039666102636L836.4892454589097 335.79039666102636Q834.5152849465537 335.79039666102636 831.8693378767998 338.520342050455Q829.2233908070459 341.2292878599649 826.514444997536 345.7651971224002L826.514444997536 345.7651971224002Q823.0285147310348 351.51908202011896 819.710581103883 358.9949324711697Q816.3716478968126 366.4917825021391 813.2007113290917 374.807616149937Q810.0297747613707 383.123449797735 807.0058352530806 391.12428974675277ZM855.6828615045848 442.3842643282549L855.6828615045848 442.3842643282549Q848.7320005515012 446.01719165418683 841.025154721345 446.01719165418683L841.025154721345 446.01719165418683Q834.5152849465537 446.01719165418683 828.9293966881843 442.8462550864659Q823.3225088498963 439.675318518745 821.3695479174589 432.7034579857426L821.3695479174589 432.7034579857426Q820.4665659809556 429.53252141802164 820.4665659809556 426.06759073143917L820.4665659809556 426.06759073143917Q820.4665659809556 420.3137058337204 822.5035252330676 414.1818284974653Q824.5404844851798 408.0709507411289 827.8584181123315 402.92605366105187L827.8584181123315 402.92605366105187Q833.0033151924085 394.90421413211544 840.8781576619142 389.61231999260764Q848.7320005515012 384.3204258530999 858.2658098345827 384.3204258530999L858.2658098345827 384.3204258530999Q865.3636678470972 384.3204258530999 869.2905892918907 387.9533531790318Q873.2175107366841 391.5862805049638 873.2175107366841 396.41618388626057L873.2175107366841 396.41618388626057Q873.2175107366841 402.1700687839794 869.3745876115654 406.4749826673091Q865.510664906528 410.77989655063885 859.3157888305168 413.04785118185646L859.3157888305168 413.04785118185646Q856.2918493222267 414.11882975770925 852.8899173754002 414.6438192556763Q849.4879854285738 415.16880875364336 846.4640459202835 415.16880875364336L846.4640459202835 415.16880875364336Q840.2691698442725 415.16880875364336 836.930236637202 413.5098419400675L836.930236637202 413.5098419400675Q834.0742937682613 420.9226936513621 834.0742937682613 427.1175697273733L834.0742937682613 427.1175697273733Q834.0742937682613 432.7034579857426 836.6362425183405 436.2733865719185Q839.1981912684197 439.82231557817573 844.8050791067077 439.82231557817573L844.8050791067077 439.82231557817573Q849.4879854285738 439.82231557817573 854.1078930106837 437.23936724817787Q858.7068010128751 434.6774184980987 862.7177207773433 430.89749411273596Q866.7286405418115 427.1175697273733 869.4375863513214 423.6316394608721L869.4375863513214 423.6316394608721Q871.5585439231082 421.06969071079294 873.0705136772533 418.8017360795753Q874.5824834313984 416.5337814483577 876.2414502449742 413.5938402597422Q877.9214166384688 410.6328994912081 880.1893712696865 406.24398728820364L880.1893712696865 406.24398728820364Q880.7773595074095 405.19400829226953 881.2393502656205 405.19400829226953L881.2393502656205 405.19400829226953Q882.1423322021238 405.19400829226953 882.1423322021238 407.60895998291795L882.1423322021238 407.60895998291795Q882.1423322021238 408.97393267763226 881.7643397635876 410.56990075145205Q881.3863473250512 412.14486924535316 880.483365388548 413.80383605892905L880.483365388548 413.80383605892905Q878.3624078167611 417.5837604442917 875.4224666281457 422.05667096697096Q872.4615258596116 426.5085819097315 869.4375863513214 430.60349999387444L869.4375863513214 430.60349999387444Q866.7286405418115 434.2154277398877 863.2427102753103 437.23936724817787Q859.7777795887278 440.263306756468 855.6828615045848 442.3842643282549ZM841.9281366578483 410.19190831291576L841.9281366578483 410.19190831291576Q842.6841215349209 410.6328994912081 843.5871034714241 410.77989655063885Q844.4900854079275 410.9478931899883 845.4140669243495 410.9478931899883L845.4140669243495 410.9478931899883Q848.4380064326397 410.9478931899883 851.4619459409298 409.49892217559926Q854.48588544922 408.0709507411289 856.5858434410882 406.55898098698384L856.5858434410882 406.55898098698384Q860.0717737075893 404.1440292963354 862.4867253982377 400.805096089265Q864.9016770888861 397.4871624621133 865.2166707876663 393.2452473185396L865.2166707876663 393.2452473185396Q865.3636678470972 391.43928344553296 864.3766875909191 390.1583090704934Q863.389707334741 388.8563351155351 860.9747556440926 388.8563351155351L860.9747556440926 388.8563351155351Q859.7777795887278 388.8563351155351 857.9508161358025 389.3183258737461L857.9508161358025 389.3183258737461Q855.5358644451541 389.9273136913879 853.1209127545058 391.5862805049638Q850.7059610638573 393.2452473185396 848.4380064326397 395.5132019497572L848.4380064326397 395.5132019497572Q847.6820215555672 396.26918682682975 845.7920593628858 398.4741427182914Q843.9020971702043 400.65809902983426 842.2221307767098 403.30404609958816Q840.563163963134 405.94999316934206 840.563163963134 407.92395368169815L840.563163963134 407.92395368169815Q840.563163963134 409.58292049527404 841.9281366578483 410.19190831291576ZM909.8197785349464 442.3842643282549L909.8197785349464 442.3842643282549Q902.8689175818628 446.01719165418683 895.1410721717879 446.01719165418683L895.1410721717879 446.01719165418683Q888.6522019769152 446.01719165418683 883.0453141386272 442.8462550864659Q877.4594258802579 439.675318518745 875.4854653679017 432.7034579857426L875.4854653679017 432.7034579857426Q874.5824834313984 429.53252141802164 874.5824834313984 426.06759073143917L874.5824834313984 426.06759073143917Q874.5824834313984 420.3137058337204 876.6194426835106 414.1818284974653Q878.6774015155413 408.0709507411289 881.9953351426931 402.92605366105187L881.9953351426931 402.92605366105187Q887.1402322227701 394.90421413211544 894.9940751123571 389.61231999260764Q902.8689175818628 384.3204258530999 912.3817272850256 384.3204258530999L912.3817272850256 384.3204258530999Q919.5005848774588 384.3204258530999 923.4275063222522 387.9533531790318Q927.3544277670456 391.5862805049638 927.3544277670456 396.41618388626057L927.3544277670456 396.41618388626057Q927.3544277670456 402.1700687839794 923.4905050620082 406.4749826673091Q919.6475819368894 410.77989655063885 913.4527058608783 413.04785118185646L913.4527058608783 413.04785118185646Q910.4287663525881 414.11882975770925 907.0268344057617 414.6438192556763Q903.6249024589354 415.16880875364336 900.6009629506451 415.16880875364336L900.6009629506451 415.16880875364336Q894.3850872947153 415.16880875364336 891.0671536675636 413.5098419400675L891.0671536675636 413.5098419400675Q888.1902112187042 420.9226936513621 888.1902112187042 427.1175697273733L888.1902112187042 427.1175697273733Q888.1902112187042 432.7034579857426 890.7731595487021 436.2733865719185Q893.3351082987813 439.82231557817573 898.9209965571506 439.82231557817573L898.9209965571506 439.82231557817573Q903.6249024589354 439.82231557817573 908.2238104611265 437.23936724817787Q912.8437180432365 434.6774184980987 916.8546378077048 430.89749411273596Q920.8445579922543 427.1175697273733 923.5745033816829 423.6316394608721L923.5745033816829 423.6316394608721Q925.6954609534698 421.06969071079294 927.2074307076149 418.8017360795753Q928.71940046176 416.5337814483577 930.3783672753358 413.5938402597422Q932.0373340889116 410.6328994912081 934.3052887201293 406.24398728820364L934.3052887201293 406.24398728820364Q934.9142765377711 405.19400829226953 935.3762672959821 405.19400829226953L935.3762672959821 405.19400829226953Q936.2792492324854 405.19400829226953 936.2792492324854 407.60895998291795L936.2792492324854 407.60895998291795Q936.2792492324854 408.97393267763226 935.9012567939492 410.56990075145205Q935.5232643554128 412.14486924535316 934.6202824189095 413.80383605892905L934.6202824189095 413.80383605892905Q932.4993248471227 417.5837604442917 929.5383840785886 422.05667096697096Q926.5984428899731 426.5085819097315 923.5745033816829 430.60349999387444L923.5745033816829 430.60349999387444Q920.8445579922543 434.2154277398877 917.3796273056718 437.23936724817787Q913.8936970391708 440.263306756468 909.8197785349464 442.3842643282549ZM896.0650536882099 410.19190831291576L896.0650536882099 410.19190831291576Q896.8210385652824 410.6328994912081 897.7240205017857 410.77989655063885Q898.6270024382891 410.9478931899883 899.5299843747923 410.9478931899883L899.5299843747923 410.9478931899883Q902.5539238830825 410.9478931899883 905.5778633913726 409.49892217559926Q908.6018028996627 408.0709507411289 910.7227604714496 406.55898098698384L910.7227604714496 406.55898098698384Q914.2086907379509 404.1440292963354 916.6236424285993 400.805096089265Q919.0385941192477 397.4871624621133 919.3325882381092 393.2452473185396L919.3325882381092 393.2452473185396Q919.5005848774588 391.43928344553296 918.5136046212806 390.1583090704934Q917.5266243651026 388.8563351155351 915.1116726744542 388.8563351155351L915.1116726744542 388.8563351155351Q913.8936970391708 388.8563351155351 912.0877331661641 389.3183258737461L912.0877331661641 389.3183258737461Q909.6727814755156 389.9273136913879 907.2368302049485 391.5862805049638Q904.8218785143001 393.2452473185396 902.5539238830825 395.5132019497572L902.5539238830825 395.5132019497572Q901.79793900601 396.26918682682975 899.9079768133286 398.4741427182914Q898.0180146206473 400.65809902983426 896.3590478070714 403.30404609958816Q894.7000809934955 405.94999316934206 894.7000809934955 407.92395368169815L894.7000809934955 407.92395368169815Q894.7000809934955 409.58292049527404 896.0650536882099 410.19190831291576ZM944.7420799397141 447.5291614083319L944.7420799397141 447.5291614083319Q939.5971828596371 447.5291614083319 935.0612735972019 446.1641887136176Q930.5253643347667 444.7992160189033 927.6484218859072 441.9432731499626Q924.7924790169665 439.06633070110314 924.7924790169665 434.6774184980987L924.7924790169665 434.6774184980987Q924.7924790169665 431.35948487094697 926.8294382690785 428.16754872330733Q928.8663975211907 424.99661215558643 932.6463219065535 424.99661215558643L932.6463219065535 424.99661215558643Q934.3052887201293 424.99661215558643 935.6702614148436 425.7525970326589Q937.0352341095579 426.5085819097315 937.4762252878503 427.72655754501505L937.4762252878503 427.72655754501505Q937.3292282284194 427.8735546044458 936.7202404107777 428.71353780119307Q936.1322521730547 429.53252141802164 935.9642555337052 429.84751511680184L935.9642555337052 429.84751511680184Q934.6202824189095 432.55646092631184 934.6202824189095 434.82441555752945L934.6202824189095 434.82441555752945Q934.6202824189095 437.9953521252504 936.9512357898832 439.9693126376065Q939.3031887407756 441.9432731499626 943.0831131261383 441.9432731499626L943.0831131261383 441.9432731499626Q948.0600135668658 441.7752765106131 951.7769392124726 438.3733445637867Q955.4728652781605 434.9714126169602 955.4728652781605 430.28850629509424L955.4728652781605 430.28850629509424Q955.4728652781605 427.57956048558424 954.2758892227957 425.1436092150172L954.2758892227957 425.1436092150172Q952.3019287104396 421.06969071079294 949.0469938230439 418.12974952217746Q945.7920589356481 415.16880875364336 942.8521177470328 412.14486924535316Q939.9121765584173 409.120929737063 938.5472038637031 404.900014173408L938.5472038637031 404.900014173408Q937.9382160460613 402.92605366105187 937.9382160460613 400.0491112121925L937.9382160460613 400.0491112121925Q937.9382160460613 397.1721687633331 938.6942009231338 394.37922463414844Q939.4501858002063 391.5862805049638 940.9621555543515 389.61231999260764L940.9621555543515 389.61231999260764Q943.0831131261383 386.75637712366694 947.3040286897933 384.3204258530999L947.3040286897933 384.3204258530999Q952.5959228293011 381.46448298415913 959.7147804217342 381.46448298415913L959.7147804217342 381.46448298415913Q964.3976867436003 381.46448298415913 968.0306140695322 382.661459039524L968.0306140695322 382.661459039524Q970.7395598790422 383.56444097602736 972.7975187110729 385.62239980805816Q974.834477963185 387.6593590601703 974.834477963185 390.977292687322L974.834477963185 390.977292687322Q974.834477963185 394.7572170726847 972.4825250122926 398.1591490195111Q970.1515716413192 401.56108096633756 965.7626594383146 402.3170658434101L965.7626594383146 402.3170658434101Q963.032714048886 402.63205954219035 960.9117564770991 401.3300855872321Q958.8117984852308 400.0491112121925 959.399786722954 396.41618388626057L959.399786722954 396.41618388626057Q963.4947048070969 395.5132019497572 965.3006686801036 393.09825025910885L965.3006686801036 393.09825025910885Q966.2036506166069 391.73327756439454 966.2036506166069 390.36830486968023L966.2036506166069 390.36830486968023Q966.2036506166069 387.80635611960105 964.1666913644947 386.819375863423Q962.1297321123825 385.83239560724496 960.323768239376 385.83239560724496L960.323768239376 385.83239560724496Q958.0558136081584 385.83239560724496 955.9978547761275 386.3783846851307Q953.9608955240155 386.9033741830977 952.3019287104396 388.10035023846257L952.3019287104396 388.10035023846257Q948.9839950832878 390.977292687322 948.9839950832878 394.7572170726847L948.9839950832878 394.7572170726847Q948.9839950832878 395.36620489032646 949.1939908824747 396.122189767399Q949.4249862615802 396.8781746444716 949.571983321011 397.63415952154406L949.571983321011 397.63415952154406Q950.3279681980835 399.6081200339002 951.8399379522286 401.26708684747604Q953.3519077063736 402.92605366105187 954.8638774605188 404.1440292963354L954.8638774605188 404.1440292963354Q958.6438018458814 406.85297510584536 962.6547216103496 410.0239116735663Q966.6656413748178 413.21584782120595 968.639601887174 417.7517570836412L968.639601887174 417.7517570836412Q970.1515716413192 420.9226936513621 970.1515716413192 424.24062727851384L970.1515716413192 424.24062727851384Q970.1515716413192 428.7765365409491 967.8836170101014 432.4934621865558Q965.6156623788838 436.18938825224376 962.7387199300244 438.31034582403066L962.7387199300244 438.31034582403066Q967.7156203707519 436.18938825224376 972.4825250122926 430.81349579306124Q977.2494296538334 425.4586029137974 980.7353599203346 420.1667087742896L980.7353599203346 420.1667087742896Q983.0033145515522 416.68077850778843 984.8932767442336 413.5938402597422Q986.783238936915 410.48590243177733 988.7361998693525 406.7059780464146L988.7361998693525 406.7059780464146Q989.3451876869942 405.6559990504805 989.8071784452052 405.6559990504805L989.8071784452052 405.6559990504805Q990.7101603817084 405.6559990504805 990.7101603817084 408.21794780055967L990.7101603817084 408.21794780055967Q990.7101603817084 409.2679267964938 990.3321679431722 410.77989655063885Q989.9541755046359 412.2918663047839 989.1981906275635 413.80383605892905L989.1981906275635 413.80383605892905Q986.4682452381347 418.3397453213643 984.0532935474863 422.2036680264017Q981.638341856838 426.06759073143917 978.1524115903368 430.60349999387444L978.1524115903368 430.60349999387444Q971.2015506372531 439.82231557817573 963.3477077476662 443.6652387032945Q955.4728652781605 447.5291614083319 944.7420799397141 447.5291614083319ZM1047.2620291027183 444.50522190004176L1027.753419358263 444.50522190004176Q1029.5593832312697 436.9453731293163 1032.6673210592346 427.64255922534034Q1035.7542593072808 418.3397453213643 1039.7651790717491 408.21794780055967Q1043.7760988362172 398.0961502797551 1048.0180139797908 388.10035023846257L1048.0180139797908 388.10035023846257Q1052.238929543446 378.12554977708874 1056.1658509882395 368.9907325124622Q1060.1137720129516 359.83491566791696 1065.23766951311 350.4691030241849L1065.23766951311 350.4691030241849Q1066.3086480889629 348.6421395712596 1067.1276317057914 347.1301698171145Q1067.9676149025386 345.61820006296944 1069.0175938984726 344.5682210670353L1069.0175938984726 344.5682210670353Q1063.1377115212417 344.7152181264661 1056.396846367345 345.9961925015057Q1049.6769807933667 347.27716687654527 1043.5451034571117 349.54512150776293Q1037.4342257007754 351.81307613898053 1033.108312237527 354.83701564727073Q1028.803398354197 357.8609551555609 1027.6064222988323 361.49388248149285L1027.6064222988323 361.49388248149285Q1027.4384256594828 361.9558732397038 1026.9974344811906 361.9558732397038L1026.9974344811906 361.9558732397038Q1025.6324617864761 361.9558732397038 1025.6324617864761 359.83491566791696L1025.6324617864761 359.83491566791696Q1025.6324617864761 359.37292490970594 1025.9264559053377 358.46994297320265L1025.9264559053377 358.46994297320265Q1027.291428600052 354.54302152840916 1029.3283878521643 351.51908202011896Q1031.386346684195 348.4951425118288 1033.4863046760631 346.37418494004197L1033.4863046760631 346.37418494004197Q1038.4842046967094 341.2292878599649 1044.6790807727205 340.09531054435615Q1050.8739568487317 338.9613332287473 1057.845817381734 338.9613332287473L1057.845817381734 338.9613332287473L1096.0860524136535 338.9613332287473Q1106.5228436332384 338.9613332287473 1112.8017180289241 342.1532693763869Q1119.08059242461 345.3242059441079 1121.7895382341198 350.53210176394094Q1124.5194836235485 355.7609971636927 1123.9104958059067 361.6408795409236L1123.9104958059067 361.6408795409236Q1122.8605168099725 373.58964051465347 1115.510663838434 381.3804846644844Q1108.181810446814 389.17132881431536 1098.3540070448712 392.9512531996781L1098.3540070448712 392.9512531996781Q1091.5501431512182 395.5132019497572 1082.9403153845587 397.10917002357706Q1074.3094880379804 398.6841385174782 1066.161651029532 398.6841385174782L1066.161651029532 398.6841385174782Q1064.3346875766067 398.6841385174782 1062.591722443356 398.62113977772214Q1060.8697568900243 398.5371414580474 1059.1897904965297 398.39014439861666L1059.1897904965297 398.39014439861666Q1057.2368295640922 403.22004777991344 1055.0318736726306 409.20492805673774Q1052.8479173610876 415.16880875364336 1050.9579551684064 421.2166877702237Q1049.067992975725 427.26456678680404 1047.8500173404414 432.4934621865558Q1046.6530412850766 437.70135800638883 1046.6530412850766 441.18728827289004L1046.6530412850766 441.18728827289004Q1046.6530412850766 443.45524290410765 1047.2620291027183 444.50522190004176L1047.2620291027183 444.50522190004176ZM1063.2847085806725 388.5623409966736L1060.1137720129516 395.97519270796823Q1067.0646329660353 396.122189767399 1074.6244817367608 394.69421833292864Q1082.1843305074863 393.2452473185396 1089.1351914605698 389.8433153717132Q1096.0860524136535 386.44138342488674 1100.9369553748688 381.0024922259482L1100.9369553748688 381.0024922259482Q1104.4018860614515 377.0755707811547 1106.3758465738074 372.01467202075236Q1108.3288075062449 366.9327736804314 1108.3288075062449 362.10287029913457L1108.3288075062449 362.10287029913457Q1108.3288075062449 355.90799422312347 1105.157870938524 350.91009420247724Q1101.986934370803 345.93319376174964 1095.0360734177193 344.42122400760456L1095.0360734177193 344.42122400760456Q1093.2091099647942 343.95923324939355 1091.4031460917874 343.8122361899628Q1089.5971822187807 343.66523913053203 1087.4762246469938 343.49724249118253L1087.4762246469938 343.49724249118253Q1084.1372914399235 347.5921605753255 1080.672360753341 353.4930425324751Q1077.18643048684 359.37292490970594 1073.9314955994441 365.7987963648226Q1070.6975602919672 372.22466781993916 1067.8836165828639 378.2095480967635Q1065.0906724536792 384.1734287936691 1063.2847085806725 388.5623409966736L1063.2847085806725 388.5623409966736ZM1118.618601666399 445.72319753532526L1118.618601666399 445.72319753532526Q1111.6677407133152 445.72319753532526 1106.6068419529129 441.3342853323208Q1101.524943612592 436.9453731293163 1101.524943612592 427.26456678680404L1101.524943612592 427.26456678680404Q1101.524943612592 420.1667087742896 1104.10789194259 412.4598629441334Q1106.669840692669 404.7320175340585 1111.4367453342097 398.0961502797551Q1116.2036499757505 391.43928344553296 1123.0075138694035 387.1973683019593Q1129.8113777630563 382.97645273830426 1138.274208470285 382.97645273830426L1138.274208470285 382.97645273830426Q1145.2250694233687 382.97645273830426 1149.088992128406 385.62239980805816Q1152.931915253525 388.268346877812 1154.6118816470193 392.63625950089784Q1156.2708484605953 397.02517170390234 1156.2708484605953 402.0230717245486L1156.2708484605953 402.0230717245486Q1156.2708484605953 405.8029961099113 1155.430865263848 409.64591923503Q1154.6118816470193 413.5098419400675 1153.0999118928744 417.2897663254302L1153.0999118928744 417.2897663254302Q1155.6618606429536 420.3137058337204 1159.588782087747 420.3137058337204L1159.588782087747 420.3137058337204Q1163.8306972313208 420.3137058337204 1167.4636245572528 417.14276926599945L1167.4636245572528 417.14276926599945Q1169.5635825491208 415.3158058130741 1171.3065476823713 412.5228616838894Q1173.0495128156222 409.7299175547048 1174.4144855103364 407.3149658640564L1174.4144855103364 407.3149658640564Q1174.8554766886286 406.4119839275531 1175.4644645062704 406.4119839275531L1175.4644645062704 406.4119839275531Q1176.220449383343 406.4119839275531 1176.220449383343 408.51194191942125L1176.220449383343 408.51194191942125Q1176.220449383343 409.87691461413556 1175.8424569448066 411.7038780670609Q1175.4644645062704 413.5098419400675 1174.2674884509056 415.3158058130741L1174.2674884509056 415.3158058130741Q1171.999533819688 419.2637268377863 1169.5635825491208 421.3006860898984Q1167.1486308584724 423.33764534201055 1164.1246913501823 424.5556209772941L1164.1246913501823 424.5556209772941Q1161.8567367189646 425.4586029137974 1159.2947879688854 425.4586029137974L1159.2947879688854 425.4586029137974Q1154.6118816470193 425.4586029137974 1150.8319572616567 422.581660464938L1150.8319572616567 422.581660464938Q1149.613981626373 425.1436092150172 1147.8080177533666 427.8735546044458L1147.8080177533666 427.8735546044458Q1143.419105550362 435.28640631574046 1136.4682445972785 440.49430213557355Q1129.496384064276 445.72319753532526 1118.618601666399 445.72319753532526ZM1124.3724865641177 439.9693126376065L1124.3724865641177 439.9693126376065Q1127.8374172507001 439.9693126376065 1131.092352138096 437.6173596867141Q1134.3472870254916 435.28640631574046 1137.0562328350015 431.8004760492393Q1139.7861782244302 428.3355453626568 1141.8231374765423 424.5556209772941Q1143.8600967286543 420.77569659193136 1145.2250694233687 417.898754143072L1145.2250694233687 417.898754143072Q1140.0801723432917 413.5098419400675 1140.0801723432917 406.85297510584536L1140.0801723432917 406.85297510584536Q1140.0801723432917 402.4640629028409 1142.5161236138588 400.0491112121925Q1144.9310753045072 397.63415952154406 1149.151990868162 397.92815364040564L1149.151990868162 397.92815364040564Q1149.0049938087313 394.46322295382316 1147.3460269951556 392.1952683226055Q1145.6870601815797 389.9273136913879 1141.907135796217 389.9273136913879L1141.907135796217 389.9273136913879Q1138.4212055297157 389.9273136913879 1135.3342672816696 392.04827126317474Q1132.2263294537047 394.1482292550429 1129.5803823839508 397.4031641424386Q1126.934435314197 400.65809902983426 1124.897476062085 404.0600309766607Q1122.8605168099725 407.46196292348714 1121.4955441152583 410.19190831291576L1121.4955441152583 410.19190831291576Q1119.5215836029022 414.11882975770925 1117.8626167893262 419.70471801607863Q1116.2036499757505 425.31160585436663 1116.2036499757505 430.1415092356634L1116.2036499757505 430.1415092356634Q1116.2036499757505 434.38342437923717 1117.9466151090012 437.17636850842183Q1119.6685806623332 439.9693126376065 1124.3724865641177 439.9693126376065ZM1194.2170893736532 445.5552008959758L1194.2170893736532 445.5552008959758Q1189.3871859923565 445.5552008959758 1187.2662284205696 441.48128239175156L1187.2662284205696 441.48128239175156Q1185.6072616069937 437.84835506581965 1185.6072616069937 432.87145462509204L1185.6072616069937 432.87145462509204Q1185.6072616069937 427.26456678680404 1187.2662284205696 420.46070289315116Q1188.9251952341453 413.65683899949823 1191.8021376830047 406.55898098698384L1191.8021376830047 406.55898098698384Q1192.852116678939 403.976032656986 1194.5950818121896 400.0491112121925Q1196.33804694544 396.122189767399 1198.7529986360885 392.3422653820363L1198.7529986360885 392.3422653820363Q1196.6320410643016 394.1482292550429 1193.7550986154422 395.28220657065174Q1190.8991557465015 396.41618388626057 1188.1692103570729 396.41618388626057L1188.1692103570729 396.41618388626057Q1186.048252785286 396.41618388626057 1184.6832800905718 395.8281956485375L1184.6832800905718 395.8281956485375Q1183.4863040352068 398.2431473391859 1180.7563586457782 403.68203853812446Q1178.0474128362684 409.120929737063 1173.5115035738331 416.5337814483577L1173.5115035738331 416.5337814483577Q1173.0495128156222 417.2897663254302 1172.6715203770857 416.44978312868295Q1172.2935279385497 415.6307995118544 1172.2935279385497 414.11882975770925L1172.2935279385497 414.11882975770925Q1172.2935279385497 412.90085412242576 1172.5875220574112 411.5358814277114Q1172.9025157561914 410.19190831291576 1173.5115035738331 408.97393267763226L1173.5115035738331 408.97393267763226Q1175.023473327978 406.0969902287728 1176.535443082123 403.0100519807266Q1178.0474128362684 399.9021141527617 1179.2443888916332 397.4871624621133Q1180.4623645269166 395.07221077146494 1180.6093615863474 394.46322295382316L1180.6093615863474 394.46322295382316Q1177.879416196919 393.09825025910885 1176.535443082123 390.5993002487857Q1175.1704703874088 388.10035023846257 1175.1704703874088 385.68539854781415L1175.1704703874088 385.68539854781415Q1175.1704703874088 383.2704468571658 1176.3044477030176 381.2964863448097Q1177.4384250186265 379.3435254123723 1179.7063796498442 378.27254683651955L1179.7063796498442 378.27254683651955Q1181.0713523445584 377.8315556582272 1182.2683283999233 377.8315556582272L1182.2683283999233 377.8315556582272Q1185.6072616069937 377.8315556582272 1187.707219598862 379.95251323001406L1187.707219598862 379.95251323001406Q1187.5602225394312 380.54050146773716 1187.4972237996749 381.23348760505365Q1187.4132254800004 381.90547416245147 1187.4132254800004 382.661459039524L1187.4132254800004 382.661459039524Q1187.4132254800004 387.34436536139003 1191.193149865363 389.61231999260764Q1194.9730742507259 391.8802746238253 1199.3619864537304 391.2922863861022L1199.3619864537304 391.2922863861022Q1201.482944025517 388.268346877812 1204.1918898350268 386.0003922465944Q1206.9218352244557 383.7324376153768 1210.0927717921766 383.7324376153768L1210.0927717921766 383.7324376153768Q1211.7517386057525 383.7324376153768 1214.8596764337174 383.87943467480756Q1217.9466146817635 384.0264317342383 1219.311587376478 383.87943467480756L1219.311587376478 383.87943467480756Q1218.4086054399745 384.48842249244933 1217.190629804691 386.294386365456Q1215.9936537493263 388.10035023846257 1214.9226751734734 390.07431075081865Q1213.8726961775392 392.04827126317474 1213.2637083598975 393.09825025910885L1213.2637083598975 393.09825025910885Q1209.1897898556733 400.95209314869584 1205.7038595891722 408.7429372985267Q1202.2389289025896 416.5337814483577 1200.4119654496644 423.6316394608721L1200.4119654496644 423.6316394608721Q1200.117971330803 424.99661215558643 1199.8869759516974 426.1305894711952Q1199.655980572592 427.26456678680404 1199.655980572592 428.4825424220876L1199.655980572592 428.4825424220876Q1199.655980572592 433.01845168452286 1202.6799200808819 433.01845168452286L1202.6799200808819 433.01845168452286Q1204.8008776526688 433.01845168452286 1208.7277990974621 429.99451217623266L1208.7277990974621 429.99451217623266Q1212.2137293639635 427.1175697273733 1214.9226751734734 423.6316394608721L1214.9226751734734 423.6316394608721Q1217.9466146817635 419.70471801607863 1220.6765600711922 415.16880875364336Q1223.4065054606208 410.6328994912081 1225.3594663930583 406.85297510584536L1225.3594663930583 406.85297510584536Q1226.115451270131 405.6559990504805 1226.4304449689112 405.6559990504805L1226.4304449689112 405.6559990504805Q1227.3334269054144 405.6559990504805 1227.3334269054144 408.36494485999043L1227.3334269054144 408.36494485999043Q1227.3334269054144 409.4359234358432 1227.0184332066342 410.9478931899883Q1226.7244390877727 412.4598629441334 1225.9684542107 413.80383605892905L1225.9684542107 413.80383605892905Q1223.7004995794823 417.5837604442917 1220.823557130623 422.05667096697096Q1217.9466146817635 426.5085819097315 1214.9226751734734 430.7504970533052L1214.9226751734734 430.7504970533052Q1212.969714241036 433.45944286281514 1209.4207852347786 436.9453731293163Q1205.850856648603 440.43130339581745 1201.8609364640533 442.99325214589663Q1197.850016699585 445.5552008959758 1194.2170893736532 445.5552008959758ZM1232.1633302867112 445.40820383654506L1232.1633302867112 445.40820383654506Q1227.7744180837067 445.40820383654506 1225.506463452489 441.9432731499626L1225.506463452489 441.9432731499626Q1224.456484456555 440.263306756468 1223.9944936983438 437.9953521252504Q1223.5535025200516 435.7273974940328 1223.5535025200516 433.3124458033844L1223.5535025200516 433.3124458033844Q1223.5535025200516 430.89749411273596 1223.847496638913 428.3985441024128Q1224.1624903376935 425.8995940920897 1224.6034815159855 423.4846424014413L1224.6034815159855 423.4846424014413Q1225.3594663930583 419.5577209566478 1226.3464466492362 416.30278606925214Q1227.3334269054144 413.04785118185646 1228.3834059013484 410.0239116735663L1228.3834059013484 410.0239116735663L1228.3834059013484 409.87691461413556Q1227.1864298459836 412.14486924535316 1225.3594663930583 414.79081631510707Q1223.5535025200516 417.43676338486097 1222.797517642979 418.6547390201445L1222.797517642979 418.6547390201445Q1221.7265390671264 420.3137058337204 1221.1385508294034 420.3137058337204L1221.1385508294034 420.3137058337204Q1220.5295630117616 420.3137058337204 1220.5295630117616 418.94873313900604L1220.5295630117616 418.94873313900604Q1220.5295630117616 415.9247936307159 1222.3355268847681 412.2918663047839L1222.3355268847681 412.2918663047839Q1223.5535025200516 409.87691461413556 1225.6744600918385 406.0339914890168Q1227.7744180837067 402.1700687839794 1230.042372714924 397.63415952154406Q1232.310327346142 393.09825025910885 1233.9902937396364 388.8563351155351L1233.9902937396364 388.8563351155351L1223.847496638913 388.8563351155351Q1223.0915117618406 388.8563351155351 1223.5535025200516 387.6593590601703Q1223.9944936983438 386.44138342488674 1224.9184752147657 385.3074061092779Q1225.8214571512692 384.1734287936691 1226.2624483295617 384.1734287936691L1226.2624483295617 384.1734287936691L1237.7702181249992 384.1734287936691Q1239.429184938575 380.2465073488756 1241.6131412501181 375.71059808644037Q1243.8180971415793 371.1746888240051 1246.6110412707642 367.1637690595369Q1249.4039853999489 363.1528492950687 1252.7219190271005 360.5909005449895Q1256.060852234171 358.0289517949103 1259.8407766195335 358.0289517949103L1259.8407766195335 358.0289517949103Q1261.4997434331096 358.0289517949103 1263.9986934434326 358.0289517949103Q1266.4976434537557 358.0289517949103 1267.085631691479 357.8609551555609L1267.085631691479 357.8609551555609Q1263.9146951237578 359.9819127273477 1259.6937795601027 366.2607871230336Q1255.4518644165291 372.5396615187194 1250.453964395883 384.1734287936691L1250.453964395883 384.1734287936691L1265.7416585766832 384.1734287936691Q1266.1826497549755 384.1734287936691 1265.426664877903 385.3074061092779Q1264.6706800008303 386.44138342488674 1263.5367026852216 387.6593590601703Q1262.4027253696129 388.8563351155351 1261.3527463736789 388.8563351155351L1261.3527463736789 388.8563351155351L1248.3540064040146 388.8563351155351Q1246.3800458916587 393.8542351361814 1244.0280929407663 399.75511709333097Q1241.6971395697926 405.6559990504805 1239.8071773771112 411.3258856285246Q1237.91721518443 416.9957722065687 1237.0142332479268 421.67867852843466L1237.0142332479268 421.67867852843466Q1236.4052454302848 424.5556209772941 1236.4052454302848 426.97057266794246L1236.4052454302848 426.97057266794246Q1236.4052454302848 432.7034579857426 1240.038172756217 432.7034579857426L1240.038172756217 432.7034579857426Q1242.453124446865 432.7034579857426 1245.771058074017 430.28850629509424Q1249.1099912810873 427.8735546044458 1252.427924908239 423.6316394608721L1252.427924908239 423.6316394608721Q1255.4518644165291 419.70471801607863 1258.2448085457138 415.16880875364336Q1261.0377526748987 410.6328994912081 1263.0117131872546 406.85297510584536L1263.0117131872546 406.85297510584536Q1263.6207010048963 405.8029961099113 1264.0616921831886 405.8029961099113L1264.0616921831886 405.8029961099113Q1264.9856736996107 405.8029961099113 1264.9856736996107 408.21794780055967L1264.9856736996107 408.21794780055967Q1264.9856736996107 409.4359234358432 1264.6076812610743 411.01089192974433Q1264.2296888225383 412.6068600035642 1263.3057073061161 414.11882975770925L1263.3057073061161 414.11882975770925Q1261.2057493142481 417.7517570836412 1258.3288068653885 422.05667096697096Q1255.4518644165291 426.36158485030074 1252.427924908239 430.60349999387444L1252.427924908239 430.60349999387444Q1250.3069673364523 433.3124458033844 1246.9050353896257 436.79837606988553Q1243.503103442799 440.263306756468 1239.6601803176804 442.8462550864659Q1235.796257612643 445.40820383654506 1232.1633302867112 445.40820383654506ZM1240.7941576332892 482.01047163480735L1240.7941576332892 482.01047163480735Q1232.9193151637837 482.01047163480735 1229.6013815366318 478.2305472494446Q1226.2624483295617 474.45062286408194 1226.2624483295617 470.0617106610774L1226.2624483295617 470.0617106610774Q1226.2624483295617 467.3317652716488 1227.3964256451704 464.9168135810004Q1228.5304029607792 462.501861890352 1230.5043634731353 461.4308833144992L1230.5043634731353 461.4308833144992Q1232.0163332272805 460.6748984374267 1233.234308862564 460.6748984374267L1233.234308862564 460.6748984374267Q1234.8932756761396 460.6748984374267 1236.258248370854 461.7458770132794Q1237.6022214856498 462.79585600921354 1237.6022214856498 464.6228194621388L1237.6022214856498 464.6228194621388Q1237.6022214856498 465.0638106404312 1237.5392227458938 465.44180307896744Q1237.455224426219 465.8197955175037 1237.3082273667883 466.2817862757147L1237.3082273667883 466.2817862757147Q1236.4052454302848 467.03777115278723 1235.5652622335376 468.5497409069323Q1234.7462786167089 470.0617106610774 1234.4312849179287 471.5736804152225L1234.4312849179287 471.5736804152225Q1234.284287858498 471.8676745340841 1234.284287858498 472.32966529229503Q1234.284287858498 472.7706564705874 1234.284287858498 473.0856501693676L1234.284287858498 473.0856501693676Q1234.284287858498 475.038611101805 1235.5022634937816 476.4035837965193Q1236.6992395491463 477.7685564912336 1238.2112093032915 477.7685564912336L1238.2112093032915 477.7685564912336Q1242.138130748085 477.7685564912336 1245.771058074017 474.8916140423742Q1249.4039853999489 472.01467159351483 1252.5119232279137 467.7097577101851Q1255.5988614759601 463.4048438268553 1258.0138131666083 459.0159316238508Q1260.4497644371754 454.62701942084635 1261.9617341913206 451.4560828531254L1261.9617341913206 451.4560828531254Q1268.9125951444041 437.4073638875273 1275.1914695400899 422.11966970672705Q1281.4493443558572 406.85297510584536 1287.0562321941452 392.3422653820363L1287.0562321941452 392.3422653820363L1282.8143170505716 392.3422653820363Q1280.1053712410617 392.3422653820363 1277.1444304725273 393.2452473185396Q1274.204489283912 394.1482292550429 1272.5455224703362 397.1721687633331L1272.5455224703362 397.1721687633331Q1270.109571199769 401.8760746651178 1267.3166270705844 407.1679688046256Q1264.5236829413996 412.4598629441334 1261.0377526748987 417.7517570836412L1261.0377526748987 417.7517570836412Q1260.4497644371754 418.8017360795753 1259.9877736789647 418.8017360795753L1259.9877736789647 418.8017360795753Q1259.2317888018918 418.8017360795753 1259.2317888018918 416.5337814483577L1259.2317888018918 416.5337814483577Q1259.2317888018918 413.80383605892905 1260.1347707383952 411.9978721859224L1260.1347707383952 411.9978721859224Q1262.4027253696129 408.21794780055967 1264.6076812610743 403.5980402184497Q1266.7916375726174 398.9991322162584 1268.597601445624 394.7572170726847Q1270.424564898549 390.53630150902967 1271.3275468350525 387.80635611960105L1271.3275468350525 387.80635611960105Q1272.0835317121253 385.68539854781415 1272.9235149088724 384.92941367074167Q1273.742498525701 384.1734287936691 1276.4724439151296 384.48842249244933L1276.4724439151296 384.48842249244933L1289.7651780036551 385.5384014883834Q1291.5921414565803 380.7084981070866 1293.3351065898312 376.0885905249766Q1295.057072143163 371.4686829428666 1296.7370385366576 367.2477673792116L1296.7370385366576 367.2477673792116Q1300.20196922324 358.46994297320265 1304.7378784856753 350.4691030241849Q1309.2737877481106 342.4472634952485 1316.0146529020074 337.3863647348462Q1322.7345184759854 332.3254659744439 1332.4153248184978 332.3254659744439L1332.4153248184978 332.3254659744439Q1338.001213076867 332.15746933509445 1341.9281345216607 333.9844327880197Q1345.8760555463728 335.79039666102636 1347.6820194193795 340.7882966816726L1347.6820194193795 340.7882966816726Q1348.1440101775904 342.1532693763869 1348.1440101775904 343.95923324939355L1348.1440101775904 343.95923324939355Q1348.1440101775904 346.98317275768375 1346.6320404234455 350.15410932540465Q1345.1200706693 353.3250458931256 1342.5371223393024 354.54302152840916L1342.5371223393024 354.54302152840916Q1341.78113746223 355.0050122866202 1340.8781555257265 355.15200934605093Q1339.975173589223 355.2990064054817 1339.2191887121505 355.2990064054817L1339.2191887121505 355.2990064054817Q1337.2452281997946 355.2990064054817 1335.7332584456497 354.24902740954764Q1334.2212886915042 353.17804883369485 1334.2212886915042 351.22508790125744L1334.2212886915042 351.22508790125744Q1334.2212886915042 350.30110638483546 1334.6832794497157 349.25112738890135L1334.6832794497157 349.25112738890135Q1337.3922252592254 347.27716687654527 1338.463203835078 343.66523913053203L1338.463203835078 343.66523913053203Q1338.6102008945088 343.05625131289025 1338.6941992141835 342.59426055467924Q1338.7571979539396 342.1532693763869 1338.7571979539396 341.69127861817594L1338.7571979539396 341.69127861817594Q1338.7571979539396 338.6673391098858 1336.4892433227221 337.3023664151715L1336.4892433227221 337.3023664151715Q1335.5862613862187 336.5463815380989 1334.5362823902847 336.3153861589934Q1333.4653038144318 336.1053903598066 1332.4153248184978 336.1053903598066L1332.4153248184978 336.1053903598066Q1327.4174247978515 336.1053903598066 1323.4905033530579 340.7882966816726L1323.4905033530579 340.7882966816726Q1318.6605999717613 346.37418494004197 1314.6496802072932 354.54302152840916Q1310.6387604428248 362.71185811677634 1307.53082261486 371.1746888240051Q1304.4438843668138 379.63751953123386 1302.0289326761651 386.14738930602516L1302.0289326761651 386.14738930602516Q1308.2238087521764 386.14738930602516 1314.0406923896512 385.9163939269197Q1319.8575760271262 385.68539854781415 1324.0994911706996 385.16040904984715Q1328.3204067343547 384.6354195518801 1329.2443882507766 384.0264317342383L1329.2443882507766 384.0264317342383Q1328.173409674924 386.9033741830977 1325.674459664601 388.5623409966736Q1323.1965092341964 390.22130781024947 1318.19860921355 390.977292687322L1318.19860921355 390.977292687322Q1314.7126789470492 391.5862805049638 1309.8827755657524 391.81727588406926Q1305.0528721844555 392.04827126317474 1299.9079751043785 392.1952683226055L1299.9079751043785 392.1952683226055L1295.519062901374 404.900014173408Q1293.3981053295872 410.9478931899883 1290.4581641409716 418.94873313900604Q1287.4972233724377 426.97057266794246 1283.7172989870749 435.66439875427676Q1279.937374601712 444.35822484061094 1275.3384665995209 452.5270614289782Q1270.7185590174108 460.6748984374267 1265.363666138147 467.4157635913235Q1259.9877736789647 474.1356291653017 1253.8558963427092 478.0625506100952Q1247.745018586373 482.01047163480735 1240.7941576332892 482.01047163480735ZM1331.1973491832143 445.72319753532526L1331.1973491832143 445.72319753532526Q1324.2464882301306 445.72319753532526 1319.1855894697283 441.3342853323208Q1314.124690709326 436.9453731293163 1314.124690709326 427.26456678680404L1314.124690709326 427.26456678680404Q1314.124690709326 420.1667087742896 1316.6866394594051 412.4598629441334Q1319.2485882094843 404.7320175340585 1324.0154928510249 398.0961502797551Q1328.7823974925657 391.43928344553296 1335.5862613862187 387.1973683019593Q1342.3901252798717 382.97645273830426 1350.8529559871004 382.97645273830426L1350.8529559871004 382.97645273830426Q1357.803816940184 382.97645273830426 1361.6677396452212 385.62239980805816Q1365.531662350259 388.268346877812 1367.1906291638347 392.63625950089784Q1368.8495959774107 397.02517170390234 1368.8495959774107 402.0230717245486L1368.8495959774107 402.0230717245486Q1368.8495959774107 405.8029961099113 1368.0096127806635 409.64591923503Q1367.1906291638347 413.5098419400675 1365.6786594096895 417.2897663254302L1365.6786594096895 417.2897663254302Q1368.240608159769 420.3137058337204 1372.1675296045623 420.3137058337204L1372.1675296045623 420.3137058337204Q1376.409444748136 420.3137058337204 1380.042372074068 417.14276926599945L1380.042372074068 417.14276926599945Q1382.1633296458547 415.3158058130741 1383.8852951991869 412.5228616838894Q1385.6282603324373 409.7299175547048 1386.9932330271515 407.3149658640564L1386.9932330271515 407.3149658640564Q1387.4552237853627 406.4119839275531 1388.0432120230857 406.4119839275531L1388.0432120230857 406.4119839275531Q1388.7991969001582 406.4119839275531 1388.7991969001582 408.51194191942125L1388.7991969001582 408.51194191942125Q1388.7991969001582 409.87691461413556 1388.421204461622 411.7038780670609Q1388.0432120230857 413.5098419400675 1386.8462359677208 415.3158058130741L1386.8462359677208 415.3158058130741Q1384.5782813365033 419.2637268377863 1382.1633296458547 421.3006860898984Q1379.7273783752878 423.33764534201055 1376.7034388669974 424.5556209772941L1376.7034388669974 424.5556209772941Q1374.43548423578 425.4586029137974 1371.8735354857006 425.4586029137974L1371.8735354857006 425.4586029137974Q1367.1906291638347 425.4586029137974 1363.410704778472 422.581660464938L1363.410704778472 422.581660464938Q1362.1927291431884 425.1436092150172 1360.386765270182 427.8735546044458L1360.386765270182 427.8735546044458Q1355.9978530671774 435.28640631574046 1349.0469921140937 440.49430213557355Q1342.0961311610101 445.72319753532526 1331.1973491832143 445.72319753532526ZM1336.951234080933 439.9693126376065L1336.951234080933 439.9693126376065Q1340.4161647675153 439.9693126376065 1343.6710996549111 437.6173596867141Q1346.926034542307 435.28640631574046 1349.6559799317356 431.8004760492393Q1352.3649257412455 428.3355453626568 1354.4018849933575 424.5556209772941Q1356.4598438253886 420.77569659193136 1357.803816940184 417.898754143072L1357.803816940184 417.898754143072Q1352.6799194400257 413.5098419400675 1352.6799194400257 406.85297510584536L1352.6799194400257 406.85297510584536Q1352.6799194400257 402.4640629028409 1355.094871130674 400.0491112121925Q1357.5098228213226 397.63415952154406 1361.7517379648962 397.92815364040564L1361.7517379648962 397.92815364040564Q1361.5837413255467 394.46322295382316 1359.9247745119708 392.1952683226055Q1358.265807698395 389.9273136913879 1354.4858833130322 389.9273136913879L1354.4858833130322 389.9273136913879Q1350.9999530465311 389.9273136913879 1347.913014798485 392.04827126317474Q1344.8050769705198 394.1482292550429 1342.1591299007662 397.4031641424386Q1339.513182831012 400.65809902983426 1337.4762235789 404.0600309766607Q1335.439264326788 407.46196292348714 1334.0742916320735 410.19190831291576L1334.0742916320735 410.19190831291576Q1332.1003311197176 414.11882975770925 1330.4413643061418 419.70471801607863Q1328.7823974925657 425.31160585436663 1328.7823974925657 430.1415092356634L1328.7823974925657 430.1415092356634Q1328.7823974925657 434.38342437923717 1330.5253626258166 437.17636850842183Q1332.268327759067 439.9693126376065 1336.951234080933 439.9693126376065ZM1389.8701754760111 445.40820383654506L1389.8701754760111 445.40820383654506Q1385.6282603324373 445.40820383654506 1383.5073027606504 442.3212655884989Q1381.4073447687822 439.2133277605339 1381.4073447687822 433.92143362102615L1381.4073447687822 433.92143362102615Q1381.4073447687822 433.1654487439536 1381.4073447687822 432.409463866881Q1381.4073447687822 431.65347898980855 1381.554341828213 430.89749411273596L1381.554341828213 430.89749411273596Q1382.3103267052857 425.1436092150172 1384.200288897967 417.898754143072Q1386.0902510906483 410.6328994912081 1388.6521998407275 402.63205954219035L1388.6521998407275 402.63205954219035Q1390.1641695948726 398.0961502797551 1392.5161225457648 391.2082880664275Q1394.8470759167387 384.3204258530999 1398.039012064378 376.3825846438382Q1401.2099486320992 368.4447434345765 1405.0528717572179 360.5909005449895Q1408.9167944622552 352.7370576554025 1413.5997007841213 346.31118620028593Q1418.2826071059874 339.8853147451693 1423.5115025057391 335.9373937204571Q1428.7193983255722 332.0104722756637 1434.6202802827218 332.0104722756637L1434.6202802827218 332.0104722756637Q1439.4501836640186 332.0104722756637 1441.2771471169438 334.362425226556Q1443.0831109899507 336.69337859752966 1443.0831109899507 339.8853147451693L1443.0831109899507 339.8853147451693Q1443.0831109899507 343.203248372321 1441.886134934586 346.60518031914745Q1440.668159299302 350.0071122659739 1439.4501836640186 352.27506689719155L1439.4501836640186 352.27506689719155Q1436.7412378545087 357.7139580961301 1432.3523256515043 364.517821989783Q1427.9634134484998 371.32168588343586 1423.133510067203 377.22256784058544L1423.133510067203 377.22256784058544Q1420.2565676183435 381.0024922259482 1416.0146524747697 385.68539854781415Q1411.7937369111148 390.36830486968023 1408.076811265508 394.3162258943924Q1404.38088519982 398.2431473391859 1402.7219183862442 399.75511709333097L1402.7219183862442 399.75511709333097L1400.306966695596 406.7059780464146Q1399.235988119743 409.58292049527404 1398.2490078635649 413.5098419400675Q1397.2830271873056 417.43676338486097 1396.5900410499892 421.3006860898984Q1395.9180544925914 425.1436092150172 1395.4560637343805 428.0205516638766L1395.4560637343805 428.0205516638766Q1395.3090666749497 428.62953948151835 1395.3090666749497 429.2385272991601Q1395.3090666749497 429.84751511680184 1395.3090666749497 430.28850629509424L1395.3090666749497 430.28850629509424Q1395.3090666749497 434.82441555752945 1398.7949969414506 434.82441555752945L1398.7949969414506 434.82441555752945Q1400.894954933319 434.82441555752945 1404.0868910809586 432.87145462509204L1404.0868910809586 432.87145462509204Q1407.1108305892487 431.0444911721668 1409.9037747184334 428.1045499835513Q1412.696718847618 425.1436092150172 1413.9146944829015 423.6316394608721L1413.9146944829015 423.6316394608721Q1416.9386339911919 419.70471801607863 1419.6475798007016 415.2528070733181Q1422.3775251901304 410.77989655063885 1424.3304861225677 406.9999721652761L1424.3304861225677 406.9999721652761Q1425.0864709996404 405.8029961099113 1425.4014646984203 405.8029961099113L1425.4014646984203 405.8029961099113Q1426.3044466349238 405.8029961099113 1426.3044466349238 408.36494485999043L1426.3044466349238 408.36494485999043Q1426.3044466349238 409.58292049527404 1425.9264541963878 411.15788898917515Q1425.5484617578513 412.75385706299494 1424.7924768807786 414.11882975770925L1424.7924768807786 414.11882975770925Q1422.671519308992 417.7517570836412 1419.7945768601326 422.11966970672705Q1416.9386339911919 426.5085819097315 1413.9146944829015 430.60349999387444L1413.9146944829015 430.60349999387444Q1411.646739851684 433.6274395021646 1407.551821767541 437.0923701887471Q1403.4779032633166 440.57830045524827 1398.7949969414506 442.99325214589663Q1394.091091039666 445.40820383654506 1389.8701754760111 445.40820383654506ZM1405.7458578945345 391.12428974675277L1405.7458578945345 391.12428974675277Q1413.3057066652598 382.2204678612317 1421.096550815091 372.01467202075236Q1428.866395385003 361.80887618027305 1434.01129246508 351.22508790125744L1434.01129246508 351.22508790125744Q1434.3262861638602 350.4691030241849 1435.3762651597942 348.2011483929673Q1436.4262441557285 345.93319376174964 1437.3502256721504 343.1192500526463Q1438.2532076086538 340.32630592346163 1438.2532076086538 338.3733449910242L1438.2532076086538 338.3733449910242Q1438.2532076086538 335.79039666102636 1436.2792470962977 335.79039666102636L1436.2792470962977 335.79039666102636L1435.2292681003635 335.79039666102636Q1433.2553075880076 335.79039666102636 1430.6093605182537 338.520342050455Q1427.9634134484998 341.2292878599649 1425.2544676389898 345.7651971224002L1425.2544676389898 345.7651971224002Q1421.7685373724887 351.51908202011896 1418.4506037453368 358.9949324711697Q1415.1116705382665 366.4917825021391 1411.9407339705456 374.807616149937Q1408.7697974028245 383.123449797735 1405.7458578945345 391.12428974675277ZM1452.3019265742519 371.93067370107764L1452.3019265742519 371.93067370107764Q1448.3750051294585 370.5657010063633 1448.3750051294585 366.7857766210006L1448.3750051294585 366.7857766210006Q1448.3750051294585 363.3208459344181 1451.167949258643 359.6039202888114Q1453.9818929677465 355.90799422312347 1457.299826594898 354.83701564727073L1457.299826594898 354.83701564727073Q1458.0558114719706 354.54302152840916 1458.5808009699379 354.54302152840916Q1459.1057904679049 354.54302152840916 1459.7147782855466 354.54302152840916L1459.7147782855466 354.54302152840916Q1462.2977266155442 354.54302152840916 1463.9566934291202 356.0549912825543Q1465.615660242696 357.56696103669935 1465.615660242696 359.5409215490554L1465.615660242696 359.5409215490554Q1465.615660242696 362.2498673585653 1462.7387177938367 364.07683081149065L1462.7387177938367 364.07683081149065Q1460.470763162619 363.76183711271045 1458.3498055908324 365.12680980742476Q1456.249847598964 366.4917825021391 1454.6538795251442 368.4447434345765Q1453.0579114513246 370.41870394693257 1452.3019265742519 371.93067370107764ZM1426.3044466349238 445.40820383654506L1426.3044466349238 445.40820383654506Q1424.3304861225677 445.40820383654506 1422.5245222495612 444.5892202197165Q1420.7185583765545 443.7492370229692 1419.5005827412708 441.3342853323208L1419.5005827412708 441.3342853323208Q1417.841615927695 437.70135800638883 1417.841615927695 432.7034579857426L1417.841615927695 432.7034579857426Q1417.841615927695 427.26456678680404 1419.5005827412708 420.5447012128259Q1421.159549554847 413.80383605892905 1423.8894949442754 406.7059780464146L1423.8894949442754 406.7059780464146Q1424.9394739402094 404.1440292963354 1426.5984407537856 400.36410491097274Q1428.27840714728 396.58418052561 1430.5463617784974 392.8042561402473Q1432.8143164097153 389.0243317548846 1435.7542575983307 386.52538174456146Q1438.6941987869461 384.0264317342383 1442.1801290534472 384.0264317342383L1442.1801290534472 384.0264317342383Q1443.8390958670232 384.0264317342383 1446.8630353753133 384.1734287936691Q1449.8869748836034 384.3204258530999 1451.2519475783176 384.1734287936691L1451.2519475783176 384.1734287936691Q1450.3489656418144 384.78241661131085 1449.130990006531 386.5883804843175Q1447.9340139511662 388.4153439372428 1446.8630353753133 390.3053061299242Q1445.813056379379 392.1952683226055 1445.2040685617374 393.2452473185396L1445.2040685617374 393.2452473185396Q1441.2771471169438 401.1200897880453 1437.7912168504429 408.8269356182015Q1434.3262861638602 416.5337814483577 1432.499322710935 423.6316394608721L1432.499322710935 423.6316394608721Q1432.2053285920733 424.8496150961556 1432.0583315326428 426.06759073143917Q1431.8903348932931 427.26456678680404 1431.8903348932931 428.3355453626568L1431.8903348932931 428.3355453626568Q1431.8903348932931 432.7034579857426 1434.7672773421525 432.7034579857426L1434.7672773421525 432.7034579857426Q1435.9852529774362 432.7034579857426 1437.4132244119064 432.0314714283448Q1438.8621954262956 431.35948487094697 1440.8151563587328 429.84751511680184L1440.8151563587328 429.84751511680184Q1444.3010866252341 427.1175697273733 1446.8630353753133 423.6316394608721L1446.8630353753133 423.6316394608721Q1449.8869748836034 419.70471801607863 1452.616920273032 415.2528070733181Q1455.325866082542 410.77989655063885 1457.299826594898 406.9999721652761L1457.299826594898 406.9999721652761Q1458.0558114719706 405.8029961099113 1458.3498055908324 405.8029961099113L1458.3498055908324 405.8029961099113Q1459.2737871072543 405.8029961099113 1459.2737871072543 408.36494485999043L1459.2737871072543 408.36494485999043Q1459.2737871072543 409.58292049527404 1458.895794668718 411.15788898917515Q1458.5178022301816 412.75385706299494 1457.7618173531089 414.11882975770925L1457.7618173531089 414.11882975770925Q1455.6408597813222 417.7517570836412 1452.7639173324628 422.11966970672705Q1449.8869748836034 426.5085819097315 1446.8630353753133 430.60349999387444L1446.8630353753133 430.60349999387444Q1444.7420778035264 433.45944286281514 1441.2771471169438 436.9453731293163Q1437.7912168504429 440.43130339581745 1433.8642954056493 442.9092538262219Q1429.9373739608557 445.40820383654506 1426.3044466349238 445.40820383654506ZM1469.248587568628 445.72319753532526L1469.248587568628 445.72319753532526Q1462.2977266155442 445.72319753532526 1457.2158282752232 441.3342853323208Q1452.154929514821 436.9453731293163 1452.154929514821 427.26456678680404L1452.154929514821 427.26456678680404Q1452.154929514821 420.1667087742896 1454.737877844819 412.4598629441334Q1457.299826594898 404.7320175340585 1462.0667312364387 398.0961502797551Q1466.8336358779795 391.43928344553296 1473.6374997716323 387.1973683019593Q1480.4413636652853 382.97645273830426 1488.904194372514 382.97645273830426L1488.904194372514 382.97645273830426Q1495.8550553255977 382.97645273830426 1499.718978030635 385.62239980805816Q1503.561901155754 388.268346877812 1505.22086796933 392.63625950089784Q1506.9008343628243 397.02517170390234 1506.9008343628243 402.0230717245486L1506.9008343628243 402.0230717245486Q1506.9008343628243 405.8029961099113 1506.0608511660769 409.64591923503Q1505.22086796933 413.5098419400675 1503.7088982151847 417.2897663254302L1503.7088982151847 417.2897663254302Q1506.2918465451826 420.3137058337204 1510.218767989976 420.3137058337204L1510.218767989976 420.3137058337204Q1514.4606831335498 420.3137058337204 1518.0726108795632 417.14276926599945L1518.0726108795632 417.14276926599945Q1520.1935684513498 415.3158058130741 1521.9365335846003 412.5228616838894Q1523.6794987178512 409.7299175547048 1525.0444714125654 407.3149658640564L1525.0444714125654 407.3149658640564Q1525.4854625908577 406.4119839275531 1526.0944504084994 406.4119839275531L1526.0944504084994 406.4119839275531Q1526.8504352855718 406.4119839275531 1526.8504352855718 408.51194191942125L1526.8504352855718 408.51194191942125Q1526.8504352855718 409.87691461413556 1526.4724428470358 411.7038780670609Q1526.0944504084994 413.5098419400675 1524.876474773216 415.3158058130741L1524.876474773216 415.3158058130741Q1522.6085201419985 419.2637268377863 1520.1935684513498 421.3006860898984Q1517.7786167607017 423.33764534201055 1514.7546772524113 424.5556209772941L1514.7546772524113 424.5556209772941Q1512.4867226211938 425.4586029137974 1509.9247738711144 425.4586029137974L1509.9247738711144 425.4586029137974Q1505.22086796933 425.4586029137974 1501.4409435839673 422.581660464938L1501.4409435839673 422.581660464938Q1500.243967528602 425.1436092150172 1498.417004075677 427.8735546044458L1498.417004075677 427.8735546044458Q1494.049091452591 435.28640631574046 1487.0772309195888 440.49430213557355Q1480.1263699665053 445.72319753532526 1469.248587568628 445.72319753532526ZM1474.9814728864283 439.9693126376065L1474.9814728864283 439.9693126376065Q1478.4674031529291 439.9693126376065 1481.722338040325 437.6173596867141Q1484.9772729277206 435.28640631574046 1487.6862187372305 431.8004760492393Q1490.4161641266592 428.3355453626568 1492.4531233787714 424.5556209772941Q1494.4900826308833 420.77569659193136 1495.8550553255977 417.898754143072L1495.8550553255977 417.898754143072Q1490.710158245521 413.5098419400675 1490.710158245521 406.85297510584536L1490.710158245521 406.85297510584536Q1490.710158245521 402.4640629028409 1493.125109936169 400.0491112121925Q1495.5610612067362 397.63415952154406 1499.781976770391 397.92815364040564L1499.781976770391 397.92815364040564Q1499.6349797109604 394.46322295382316 1497.9760128973846 392.1952683226055Q1496.3170460838087 389.9273136913879 1492.537121698446 389.9273136913879L1492.537121698446 389.9273136913879Q1489.0511914319447 389.9273136913879 1485.94325360398 392.04827126317474Q1482.8563153559337 394.1482292550429 1480.21036828618 397.4031641424386Q1477.564421216426 400.65809902983426 1475.527461964314 404.0600309766607Q1473.469503132283 407.46196292348714 1472.1255300174873 410.19190831291576L1472.1255300174873 410.19190831291576Q1470.1515695051314 414.11882975770925 1468.4926026915555 419.70471801607863Q1466.8336358779795 425.31160585436663 1466.8336358779795 430.1415092356634L1466.8336358779795 430.1415092356634Q1466.8336358779795 434.38342437923717 1468.5556014313117 437.17636850842183Q1470.2985665645622 439.9693126376065 1474.9814728864283 439.9693126376065Z " fill="white" transform="matrix(0.5730750798401781,0,0,0.573075079840178,0,66.75247145493186)"/></g></svg>